<?xml version="1.0" encoding="utf-8"?>
<!-- Generator: Adobe Illustrator 23.0.2, SVG Export Plug-In . SVG Version: 6.00 Build 0)  -->
<svg version="1.1" id="Layer_1" xmlns="http://www.w3.org/2000/svg" xmlns:xlink="http://www.w3.org/1999/xlink" x="0px" y="0px"
	 viewBox="0 0 318.1 259.4" style="enable-background:new 0 0 318.1 259.4;" xml:space="preserve">
<style type="text/css">
	.st0{fill-rule:evenodd;clip-rule:evenodd;fill:#6633CC;}
	.st1{fill-rule:evenodd;clip-rule:evenodd;fill:#FFFFFF;}
	.st2{opacity:0.63;}
	.st3{fill:url(#element-luz-camara_2_);}
	.st4{fill-rule:evenodd;clip-rule:evenodd;fill:#FFFFFF;stroke:url(#Fill-11_3_);stroke-miterlimit:10;}
	.st5{filter:url(#Adobe_OpacityMaskFilter);}
	.st6{mask:url(#mask-2_2_);fill-rule:evenodd;clip-rule:evenodd;fill:#6633CC;}
	.st7{filter:url(#Adobe_OpacityMaskFilter_1_);}
	.st8{mask:url(#mask-2_1_);fill-rule:evenodd;clip-rule:evenodd;fill:#FFFFFF;stroke:url(#Fill-77_3_);stroke-miterlimit:10;}
	.st9{filter:url(#Adobe_OpacityMaskFilter_2_);}
	.st10{mask:url(#mask-5_2_);fill-rule:evenodd;clip-rule:evenodd;fill:#6633CC;}
	.st11{filter:url(#Adobe_OpacityMaskFilter_3_);}
	.st12{mask:url(#mask-5_1_);fill-rule:evenodd;clip-rule:evenodd;fill:#FFFFFF;stroke:url(#Fill-82_3_);stroke-miterlimit:10;}
	.st13{filter:url(#Adobe_OpacityMaskFilter_4_);}
	.st14{mask:url(#mask-8_2_);fill-rule:evenodd;clip-rule:evenodd;fill:#6633CC;}
	.st15{filter:url(#Adobe_OpacityMaskFilter_5_);}
	.st16{mask:url(#mask-8_1_);fill-rule:evenodd;clip-rule:evenodd;fill:#FFFFFF;stroke:url(#Fill-87_3_);stroke-miterlimit:10;}
	.st17{filter:url(#Adobe_OpacityMaskFilter_6_);}
	.st18{mask:url(#mask-11_2_);fill-rule:evenodd;clip-rule:evenodd;fill:#6633CC;}
	.st19{filter:url(#Adobe_OpacityMaskFilter_7_);}
	.st20{mask:url(#mask-11_1_);fill-rule:evenodd;clip-rule:evenodd;fill:#FFFFFF;stroke:url(#Fill-92_3_);stroke-miterlimit:10;}
	.st21{filter:url(#Adobe_OpacityMaskFilter_8_);}
	.st22{mask:url(#mask-14_1_);fill-rule:evenodd;clip-rule:evenodd;fill:#6633CC;}
	.st23{fill-rule:evenodd;clip-rule:evenodd;fill:none;stroke:#6633CC;stroke-miterlimit:10;}
	.st24{fill-rule:evenodd;clip-rule:evenodd;fill:#FFFFFF;stroke:url(#Fill-11_4_);stroke-miterlimit:10;}
	.st25{filter:url(#Adobe_OpacityMaskFilter_9_);}
	.st26{mask:url(#mask-2_4_);fill-rule:evenodd;clip-rule:evenodd;fill:#6633CC;}
	.st27{filter:url(#Adobe_OpacityMaskFilter_10_);}
	.st28{mask:url(#mask-2_3_);fill-rule:evenodd;clip-rule:evenodd;fill:#FFFFFF;stroke:url(#Fill-77_4_);stroke-miterlimit:10;}
	.st29{filter:url(#Adobe_OpacityMaskFilter_11_);}
	.st30{mask:url(#mask-5_4_);fill-rule:evenodd;clip-rule:evenodd;fill:#6633CC;}
	.st31{filter:url(#Adobe_OpacityMaskFilter_12_);}
	.st32{mask:url(#mask-5_3_);fill-rule:evenodd;clip-rule:evenodd;fill:#FFFFFF;stroke:url(#Fill-82_4_);stroke-miterlimit:10;}
	.st33{filter:url(#Adobe_OpacityMaskFilter_13_);}
	.st34{mask:url(#mask-8_4_);fill-rule:evenodd;clip-rule:evenodd;fill:#6633CC;}
	.st35{filter:url(#Adobe_OpacityMaskFilter_14_);}
	.st36{mask:url(#mask-8_3_);fill-rule:evenodd;clip-rule:evenodd;fill:#FFFFFF;stroke:url(#Fill-87_4_);stroke-miterlimit:10;}
	.st37{filter:url(#Adobe_OpacityMaskFilter_15_);}
	.st38{mask:url(#mask-11_4_);fill-rule:evenodd;clip-rule:evenodd;fill:#6633CC;}
	.st39{filter:url(#Adobe_OpacityMaskFilter_16_);}
	.st40{mask:url(#mask-11_3_);fill-rule:evenodd;clip-rule:evenodd;fill:#FFFFFF;stroke:url(#Fill-92_4_);stroke-miterlimit:10;}
	.st41{filter:url(#Adobe_OpacityMaskFilter_17_);}
	.st42{mask:url(#mask-14_2_);fill-rule:evenodd;clip-rule:evenodd;fill:#6633CC;}
</style>
<title>element-camara</title>
<desc>Created with Sketch.</desc>
<g id="Clip-4">
</g>
<g id="Clip-24">
</g>
<g id="Clip-27">
</g>
<g id="Clip-30">
</g>
<g id="Clip-33">
</g>
<g id="Clip-36">
</g>
<g id="Clip-39">
</g>
<g id="Clip-42">
</g>
<g id="Clip-45">
</g>
<g id="Clip-50">
</g>
<g id="Clip-55">
</g>
<g>
	<path id="Fill-3" class="st0" d="M35.5,95c-8,0-14.4,6.5-14.4,14.4l0,0v47.2c0,8,6.5,14.4,14.4,14.4l0,0H155
		c8,0,14.4-6.5,14.4-14.4l0,0v-47.2c0-8-6.5-14.4-14.4-14.4l0,0H35.5z M23.2,156.7v-47.2c0-6.8,5.5-12.3,12.3-12.3l0,0H155
		c6.8,0,12.3,5.5,12.3,12.3l0,0v47.2c0,6.8-5.5,12.3-12.3,12.3l0,0H35.5C28.7,168.9,23.2,163.4,23.2,156.7L23.2,156.7z"/>
	<path id="Fill-23" class="st0" d="M71.4,168.9c-0.6,0-1.1,0.5-1.1,1.1l0,0v0.5c0,6.6,5.4,12,12,12l0,0h25.9c6.6,0,12-5.4,12-12l0,0
		V170c0-0.6-0.5-1.1-1.1-1.1l0,0H71.4z M72.5,171.1H118c-0.3,5.1-4.6,9.2-9.8,9.2l0,0H82.3C77.1,180.3,72.8,176.2,72.5,171.1
		L72.5,171.1z"/>
	<path id="Fill-26" class="st0" d="M94.1,181.4v74.2c0,0.6,0.5,1.1,1.1,1.1l0,0c0.6,0,1.1-0.5,1.1-1.1l0,0v-74.2
		c0-0.6-0.5-1.1-1.1-1.1l0,0C94.6,180.3,94.1,180.8,94.1,181.4"/>
	<path id="Fill-29" class="st0" d="M94.5,180.6l-75,75.1c-0.4,0.4-0.4,1.1,0,1.5l0,0c0.2,0.2,0.5,0.3,0.8,0.3l0,0
		c0.3,0,0.6-0.1,0.8-0.3l0,0l75-75.1c0.4-0.4,0.4-1.1,0-1.5l0,0c-0.2-0.2-0.5-0.3-0.8-0.3l0,0C94.9,180.3,94.7,180.4,94.5,180.6"/>
	<path id="Fill-32" class="st0" d="M94.5,180.6c-0.4,0.4-0.4,1.1,0,1.5l0,0l75,75.1c0.2,0.2,0.5,0.3,0.8,0.3l0,0
		c0.3,0,0.6-0.1,0.8-0.3l0,0c0.4-0.4,0.4-1.1,0-1.5l0,0l-75-75.1c-0.2-0.2-0.5-0.3-0.8-0.3l0,0C94.9,180.3,94.7,180.4,94.5,180.6"/>
	<path id="Fill-35" class="st0" d="M35.8,149.1c-0.6,0-1.1,0.5-1.1,1.1l0,0v8c0,0.6,0.5,1.1,1.1,1.1l0,0h39.8c0.6,0,1.1-0.5,1.1-1.1
		l0,0v-8c0-0.6-0.5-1.1-1.1-1.1l0,0H35.8z M36.9,157.1h37.6v-5.9H36.9V157.1z"/>
	<path id="Fill-38" class="st0" d="M82.3,149.1c-0.6,0-1.1,0.5-1.1,1.1l0,0v8c0,0.6,0.5,1.1,1.1,1.1l0,0h8.2c0.6,0,1.1-0.5,1.1-1.1
		l0,0v-8c0-0.6-0.5-1.1-1.1-1.1l0,0H82.3z M83.4,157.1h6v-5.9h-6V157.1z"/>
	<path id="Fill-41" class="st0" d="M35.8,137.1c-0.6,0-1.1,0.5-1.1,1.1l0,0c0,0.6,0.5,1.1,1.1,1.1l0,0h39.8c0.6,0,1.1-0.5,1.1-1.1
		l0,0c0-0.6-0.5-1.1-1.1-1.1l0,0H35.8z"/>
	<path id="Fill-44" class="st0" d="M35.8,126.2c-0.6,0-1.1,0.5-1.1,1.1l0,0c0,0.6,0.5,1.1,1.1,1.1l0,0h54.6c0.6,0,1.1-0.5,1.1-1.1
		l0,0c0-0.6-0.5-1.1-1.1-1.1l0,0H35.8z"/>
	<path id="Fill-49" class="st0" d="M190.1,108.9l-18.1,10.4c-0.3,0.2-0.5,0.5-0.5,0.9l0,0v25.6c0,0.4,0.2,0.7,0.5,0.9l0,0l18.1,10.4
		c0.2,0.1,0.4,0.1,0.5,0.1l0,0c0.2,0,0.4,0,0.5-0.1l0,0c0.3-0.2,0.5-0.5,0.5-0.9l0,0v-46.4c0-0.4-0.2-0.7-0.5-0.9l0,0
		c-0.2-0.1-0.4-0.1-0.5-0.1l0,0C190.5,108.8,190.3,108.8,190.1,108.9L190.1,108.9z M173.7,145.2v-24.3l15.9-9.2v42.7L173.7,145.2z"
		/>
	<polygon id="Fill-52" class="st1" points="190.7,106.9 190.7,159.2 198.2,163.6 198.2,102.5 	"/>
	<path id="Fill-54" class="st0" d="M197.7,101.6l-7.5,4.4c-0.3,0.2-0.5,0.5-0.5,0.9l0,0v52.4c0,0.4,0.2,0.7,0.5,0.9l0,0l7.5,4.4
		c0.2,0.1,0.4,0.1,0.5,0.1l0,0c0.2,0,0.4,0,0.5-0.1l0,0c0.3-0.2,0.5-0.5,0.5-0.9l0,0v-61.1c0-0.4-0.2-0.7-0.5-0.9l0,0
		c-0.2-0.1-0.4-0.1-0.5-0.1l0,0C198,101.4,197.8,101.5,197.7,101.6L197.7,101.6z M191.8,158.6v-51.1l5.4-3.1v57.3L191.8,158.6z"/>
</g>
<g class="st2">
	<title>element-luz-camara</title>
	<desc>Created with Sketch.</desc>
	<g id="GIFOS_1_">
		<g transform="translate(-764.000000, -2162.000000)">
			
				<linearGradient id="element-luz-camara_2_" gradientUnits="userSpaceOnUse" x1="788.7141" y1="2417.8796" x2="788.1483" y2="2417.8096" gradientTransform="matrix(91 0 0 -151 -70750.6094 367398.5)">
				<stop  offset="0" style="stop-color:#88F3E2;stop-opacity:0"/>
				<stop  offset="1" style="stop-color:#50E3C2"/>
			</linearGradient>
			<polygon id="element-luz-camara_1_" class="st3" points="966.3,2267.3 1057.3,2192 1057.3,2391 966.3,2321.3 			"/>
		</g>
	</g>
</g>
<g>
	<path id="path-13_3_" class="st1" d="M151.3,68.2c-0.3,0-0.5,0.2-0.6,0.4l0,0c-1.2,2.7-3.3,4.8-6,6l0,0c-0.2,0.1-0.4,0.4-0.4,0.6
		l0,0v20c0,0.2,0.1,0.4,0.2,0.5l0,0c0.1,0.1,0.3,0.2,0.4,0.2l0,0c0,0,0.1,0,0.1,0l0,0c13.9-2.2,24.7-13,26.9-26.9l0,0
		c0-0.2,0-0.4-0.2-0.5l0,0c-0.1-0.2-0.3-0.2-0.5-0.2l0,0H151.3z M145.6,75.7c2.7-1.3,4.8-3.5,6.1-6.1l0,0h18.7
		c-2.4,12.7-12.2,22.5-24.9,24.9l0,0V75.7z"/>
</g>
<g>
	<path id="path-10_5_" class="st1" d="M108.3,68.2c-0.2,0-0.4,0.1-0.5,0.2l0,0c-0.1,0.2-0.2,0.4-0.2,0.5l0,0
		c2.2,13.9,13,24.7,26.9,26.9l0,0c0,0,0.1,0,0.1,0l0,0c0.2,0,0.3-0.1,0.4-0.2l0,0c0.2-0.1,0.2-0.3,0.2-0.5l0,0v-20
		c0-0.3-0.2-0.5-0.4-0.6l0,0c-2.7-1.2-4.8-3.3-6-6l0,0c-0.1-0.2-0.4-0.4-0.6-0.4l0,0H108.3z M109.1,69.6h18.7
		c1.3,2.7,3.5,4.9,6.1,6.1l0,0v18.7C121.3,92.1,111.5,82.2,109.1,69.6L109.1,69.6z"/>
</g>
<g>
	<path id="path-7_5_" class="st1" d="M134.6,31.6c-13.9,2.2-24.7,13-26.9,26.9l0,0c0,0.2,0,0.4,0.2,0.5l0,0c0.1,0.2,0.3,0.2,0.5,0.2
		l0,0h20c0.3,0,0.5-0.2,0.6-0.4l0,0c1.2-2.7,3.3-4.9,6-6l0,0c0.2-0.1,0.4-0.4,0.4-0.6l0,0v-20c0-0.2-0.1-0.4-0.2-0.5l0,0
		c-0.1-0.1-0.3-0.2-0.4-0.2l0,0C134.6,31.6,134.6,31.6,134.6,31.6 M134,33v18.7c-2.7,1.3-4.8,3.5-6.1,6.1l0,0h-18.7
		C111.5,45.3,121.3,35.4,134,33"/>
</g>
<g>
	<path id="path-4_5_" class="st1" d="M144.5,31.7c-0.2,0.1-0.2,0.3-0.2,0.5l0,0v20c0,0.3,0.2,0.5,0.4,0.6l0,0c2.7,1.2,4.8,3.3,6,6
		l0,0c0.1,0.2,0.4,0.4,0.6,0.4l0,0h20c0.2,0,0.4-0.1,0.5-0.2l0,0c0.1-0.2,0.2-0.4,0.2-0.5l0,0c-2.2-13.9-13-24.7-26.9-26.9l0,0
		c0,0-0.1,0-0.1,0l0,0C144.8,31.6,144.6,31.6,144.5,31.7 M145.6,51.8V33c12.7,2.4,22.5,12.2,24.9,24.9l0,0h-18.7
		C150.5,55.2,148.3,53.1,145.6,51.8"/>
</g>
<g>
	<path id="path-1_5_" class="st1" d="M96.9,63.5C96.9,87,116,106,139.4,106l0,0C162.9,106,182,87,182,63.5l0,0
		c0-23.4-19.1-42.5-42.5-42.5l0,0C116,21,96.9,40.1,96.9,63.5 M99.5,63.5c0-22,17.9-40,40-40l0,0c22,0,40,17.9,40,40l0,0
		c0,22-17.9,40-40,40l0,0C117.4,103.5,99.5,85.6,99.5,63.5"/>
</g>
<title>element_cinta1</title>
<desc>Created with Sketch.</desc>
<g id="element_cinta1_1_" transform="translate(1031.000000, 2162.621000)">
	<linearGradient id="Fill-11_3_" gradientUnits="userSpaceOnUse" x1="-945.3548" y1="-2105.2214" x2="-849.9956" y2="-2105.2214">
		<stop  offset="0" style="stop-color:#7C72FF"/>
		<stop  offset="1" style="stop-color:#6633CC"/>
	</linearGradient>
	<path id="Fill-11_1_" class="st4" d="M-897.7-2058c-26.1,0-47.2-21.1-47.2-47.2c0-26.1,21.1-47.2,47.2-47.2
		c26.1,0,47.2,21.1,47.2,47.2C-850.5-2079.2-871.6-2058-897.7-2058z"/>
	<g id="Clip-14_1_">
	</g>
	<defs>
		<filter id="Adobe_OpacityMaskFilter" filterUnits="userSpaceOnUse" x="-946.3" y="-2153.9" width="97.3" height="97.3">
			<feColorMatrix  type="matrix" values="1 0 0 0 0  0 1 0 0 0  0 0 1 0 0  0 0 0 1 0"/>
		</filter>
	</defs>
	<mask maskUnits="userSpaceOnUse" x="-946.3" y="-2153.9" width="97.3" height="97.3" id="mask-2_2_">
		<g class="st5">
			<path id="path-1_2_" class="st1" d="M-946.3-2105.2c0,26.8,21.8,48.6,48.6,48.6l0,0c26.8,0,48.6-21.8,48.6-48.6l0,0
				c0-26.8-21.8-48.6-48.6-48.6l0,0C-924.5-2153.9-946.3-2132-946.3-2105.2 M-943.4-2105.2c0-25.2,20.5-45.7,45.7-45.7l0,0
				c25.2,0,45.7,20.5,45.7,45.7l0,0c0,25.2-20.5,45.7-45.7,45.7l0,0C-922.9-2059.5-943.4-2080-943.4-2105.2"/>
		</g>
	</mask>
	<path id="Fill-13_1_" class="st6" d="M-946.3-2105.2c0,26.8,21.8,48.6,48.6,48.6l0,0c26.8,0,48.6-21.8,48.6-48.6l0,0
		c0-26.8-21.8-48.6-48.6-48.6l0,0C-924.5-2153.9-946.3-2132-946.3-2105.2 M-943.4-2105.2c0-25.2,20.5-45.7,45.7-45.7l0,0
		c25.2,0,45.7,20.5,45.7,45.7l0,0c0,25.2-20.5,45.7-45.7,45.7l0,0C-922.9-2059.5-943.4-2080-943.4-2105.2"/>
	<defs>
		<filter id="Adobe_OpacityMaskFilter_1_" filterUnits="userSpaceOnUse" x="-891.9" y="-2141.5" width="31.2" height="31.1">
			<feColorMatrix  type="matrix" values="1 0 0 0 0  0 1 0 0 0  0 0 1 0 0  0 0 0 1 0"/>
		</filter>
	</defs>
	<mask maskUnits="userSpaceOnUse" x="-891.9" y="-2141.5" width="31.2" height="31.1" id="mask-2_1_">
		<g class="st7">
			<path id="path-1_1_" class="st1" d="M-946.3-2105.2c0,26.8,21.8,48.6,48.6,48.6l0,0c26.8,0,48.6-21.8,48.6-48.6l0,0
				c0-26.8-21.8-48.6-48.6-48.6l0,0C-924.5-2153.9-946.3-2132-946.3-2105.2 M-943.4-2105.2c0-25.2,20.5-45.7,45.7-45.7l0,0
				c25.2,0,45.7,20.5,45.7,45.7l0,0c0,25.2-20.5,45.7-45.7,45.7l0,0C-922.9-2059.5-943.4-2080-943.4-2105.2"/>
		</g>
	</mask>
	<linearGradient id="Fill-77_3_" gradientUnits="userSpaceOnUse" x1="-891.8681" y1="-2125.9207" x2="-860.6299" y2="-2125.9207">
		<stop  offset="0" style="stop-color:#7C72FF"/>
		<stop  offset="1" style="stop-color:#6633CC"/>
	</linearGradient>
	<path id="Fill-77_1_" class="st8" d="M-891.4-2141v22.8c3.3,1.4,5.9,4.1,7.3,7.3h22.8C-863.7-2126.3-875.9-2138.5-891.4-2141"/>
	<g id="Clip-80_1_">
	</g>
	<defs>
		<filter id="Adobe_OpacityMaskFilter_2_" filterUnits="userSpaceOnUse" x="-892.1" y="-2141.8" width="31.7" height="31.7">
			<feColorMatrix  type="matrix" values="1 0 0 0 0  0 1 0 0 0  0 0 1 0 0  0 0 0 1 0"/>
		</filter>
	</defs>
	<mask maskUnits="userSpaceOnUse" x="-892.1" y="-2141.8" width="31.7" height="31.7" id="mask-5_2_">
		<g class="st9">
			<path id="path-4_2_" class="st1" d="M-891.9-2141.6c-0.2,0.1-0.3,0.4-0.3,0.6l0,0v22.8c0,0.3,0.2,0.6,0.5,0.7l0,0
				c3.1,1.4,5.5,3.8,6.9,6.9l0,0c0.1,0.3,0.4,0.5,0.7,0.5l0,0h22.8c0.2,0,0.4-0.1,0.6-0.3l0,0c0.1-0.2,0.2-0.4,0.2-0.6l0,0
				c-2.5-15.9-14.9-28.3-30.8-30.8l0,0c0,0-0.1,0-0.1,0l0,0C-891.5-2141.8-891.7-2141.7-891.9-2141.6 M-890.6-2118.7v-21.4
				c14.5,2.7,25.8,14,28.5,28.5l0,0h-21.4C-885-2114.7-887.5-2117.2-890.6-2118.7"/>
		</g>
	</mask>
	<path id="Fill-79_1_" class="st10" d="M-891.9-2141.6c-0.2,0.1-0.3,0.4-0.3,0.6l0,0v22.8c0,0.3,0.2,0.6,0.5,0.7l0,0
		c3.1,1.4,5.5,3.8,6.9,6.9l0,0c0.1,0.3,0.4,0.5,0.7,0.5l0,0h22.8c0.2,0,0.4-0.1,0.6-0.3l0,0c0.1-0.2,0.2-0.4,0.2-0.6l0,0
		c-2.5-15.9-14.9-28.3-30.8-30.8l0,0c0,0-0.1,0-0.1,0l0,0C-891.5-2141.8-891.7-2141.7-891.9-2141.6 M-890.6-2118.7v-21.4
		c14.5,2.7,25.8,14,28.5,28.5l0,0h-21.4C-885-2114.7-887.5-2117.2-890.6-2118.7"/>
	<defs>
		<filter id="Adobe_OpacityMaskFilter_3_" filterUnits="userSpaceOnUse" x="-933.9" y="-2141.6" width="31.2" height="31.2">
			<feColorMatrix  type="matrix" values="1 0 0 0 0  0 1 0 0 0  0 0 1 0 0  0 0 0 1 0"/>
		</filter>
	</defs>
	<mask maskUnits="userSpaceOnUse" x="-933.9" y="-2141.6" width="31.2" height="31.2" id="mask-5_1_">
		<g class="st11">
			<path id="path-4_1_" class="st1" d="M-891.9-2141.6c-0.2,0.1-0.3,0.4-0.3,0.6l0,0v22.8c0,0.3,0.2,0.6,0.5,0.7l0,0
				c3.1,1.4,5.5,3.8,6.9,6.9l0,0c0.1,0.3,0.4,0.5,0.7,0.5l0,0h22.8c0.2,0,0.4-0.1,0.6-0.3l0,0c0.1-0.2,0.2-0.4,0.2-0.6l0,0
				c-2.5-15.9-14.9-28.3-30.8-30.8l0,0c0,0-0.1,0-0.1,0l0,0C-891.5-2141.8-891.7-2141.7-891.9-2141.6 M-890.6-2118.7v-21.4
				c14.5,2.7,25.8,14,28.5,28.5l0,0h-21.4C-885-2114.7-887.5-2117.2-890.6-2118.7"/>
		</g>
	</mask>
	<linearGradient id="Fill-82_3_" gradientUnits="userSpaceOnUse" x1="-933.8726" y1="-2125.9668" x2="-902.6331" y2="-2125.9668">
		<stop  offset="0" style="stop-color:#7C72FF"/>
		<stop  offset="1" style="stop-color:#6633CC"/>
	</linearGradient>
	<path id="Fill-82_1_" class="st12" d="M-903.1-2141c-15.4,2.5-27.7,14.7-30.2,30.2h22.8c1.4-3.3,4.1-5.9,7.3-7.3V-2141z"/>
	<g id="Clip-85_1_">
	</g>
	<defs>
		<filter id="Adobe_OpacityMaskFilter_4_" filterUnits="userSpaceOnUse" x="-934.1" y="-2141.8" width="31.7" height="31.7">
			<feColorMatrix  type="matrix" values="1 0 0 0 0  0 1 0 0 0  0 0 1 0 0  0 0 0 1 0"/>
		</filter>
	</defs>
	<mask maskUnits="userSpaceOnUse" x="-934.1" y="-2141.8" width="31.7" height="31.7" id="mask-8_2_">
		<g class="st13">
			<path id="path-7_2_" class="st1" d="M-903.3-2141.8c-15.9,2.5-28.3,14.9-30.8,30.8l0,0c0,0.2,0,0.5,0.2,0.6l0,0
				c0.1,0.2,0.4,0.3,0.6,0.3l0,0h22.8c0.3,0,0.6-0.2,0.7-0.5l0,0c1.4-3.1,3.8-5.5,6.9-6.9l0,0c0.3-0.1,0.5-0.4,0.5-0.7l0,0v-22.8
				c0-0.2-0.1-0.4-0.3-0.6l0,0c-0.1-0.1-0.3-0.2-0.5-0.2l0,0C-903.2-2141.8-903.2-2141.8-903.3-2141.8 M-903.9-2140.1v21.4
				c-3.1,1.5-5.5,4-7,7l0,0h-21.4C-929.7-2126.1-918.4-2137.4-903.9-2140.1"/>
		</g>
	</mask>
	<path id="Fill-84_1_" class="st14" d="M-903.3-2141.8c-15.9,2.5-28.3,14.9-30.8,30.8l0,0c0,0.2,0,0.5,0.2,0.6l0,0
		c0.1,0.2,0.4,0.3,0.6,0.3l0,0h22.8c0.3,0,0.6-0.2,0.7-0.5l0,0c1.4-3.1,3.8-5.5,6.9-6.9l0,0c0.3-0.1,0.5-0.4,0.5-0.7l0,0v-22.8
		c0-0.2-0.1-0.4-0.3-0.6l0,0c-0.1-0.1-0.3-0.2-0.5-0.2l0,0C-903.2-2141.8-903.2-2141.8-903.3-2141.8 M-903.9-2140.1v21.4
		c-3.1,1.5-5.5,4-7,7l0,0h-21.4C-929.7-2126.1-918.4-2137.4-903.9-2140.1"/>
	<defs>
		<filter id="Adobe_OpacityMaskFilter_5_" filterUnits="userSpaceOnUse" x="-933.9" y="-2099.6" width="31.2" height="31.2">
			<feColorMatrix  type="matrix" values="1 0 0 0 0  0 1 0 0 0  0 0 1 0 0  0 0 0 1 0"/>
		</filter>
	</defs>
	<mask maskUnits="userSpaceOnUse" x="-933.9" y="-2099.6" width="31.2" height="31.2" id="mask-8_1_">
		<g class="st15">
			<path id="path-7_1_" class="st1" d="M-903.3-2141.8c-15.9,2.5-28.3,14.9-30.8,30.8l0,0c0,0.2,0,0.5,0.2,0.6l0,0
				c0.1,0.2,0.4,0.3,0.6,0.3l0,0h22.8c0.3,0,0.6-0.2,0.7-0.5l0,0c1.4-3.1,3.8-5.5,6.9-6.9l0,0c0.3-0.1,0.5-0.4,0.5-0.7l0,0v-22.8
				c0-0.2-0.1-0.4-0.3-0.6l0,0c-0.1-0.1-0.3-0.2-0.5-0.2l0,0C-903.2-2141.8-903.2-2141.8-903.3-2141.8 M-903.9-2140.1v21.4
				c-3.1,1.5-5.5,4-7,7l0,0h-21.4C-929.7-2126.1-918.4-2137.4-903.9-2140.1"/>
		</g>
	</mask>
	<linearGradient id="Fill-87_3_" gradientUnits="userSpaceOnUse" x1="-933.8716" y1="-2083.9639" x2="-902.6335" y2="-2083.9639">
		<stop  offset="0" style="stop-color:#7C72FF"/>
		<stop  offset="1" style="stop-color:#6633CC"/>
	</linearGradient>
	<path id="Fill-87_1_" class="st16" d="M-910.4-2099.1h-22.8c2.5,15.4,14.7,27.7,30.2,30.2v-22.8
		C-906.4-2093.2-909-2095.8-910.4-2099.1"/>
	<g id="Clip-90_1_">
	</g>
	<defs>
		<filter id="Adobe_OpacityMaskFilter_6_" filterUnits="userSpaceOnUse" x="-934.1" y="-2099.9" width="31.7" height="31.7">
			<feColorMatrix  type="matrix" values="1 0 0 0 0  0 1 0 0 0  0 0 1 0 0  0 0 0 1 0"/>
		</filter>
	</defs>
	<mask maskUnits="userSpaceOnUse" x="-934.1" y="-2099.9" width="31.7" height="31.7" id="mask-11_2_">
		<g class="st17">
			<path id="path-10_2_" class="st1" d="M-933.3-2099.9c-0.2,0-0.4,0.1-0.6,0.3l0,0c-0.1,0.2-0.2,0.4-0.2,0.6l0,0
				c2.5,15.9,14.9,28.3,30.8,30.8l0,0c0,0,0.1,0,0.1,0l0,0c0.2,0,0.4-0.1,0.5-0.2l0,0c0.2-0.1,0.3-0.4,0.3-0.6l0,0v-22.8
				c0-0.3-0.2-0.6-0.5-0.7l0,0c-3.1-1.4-5.5-3.8-6.9-6.9l0,0c-0.1-0.3-0.4-0.5-0.7-0.5l0,0H-933.3z M-932.4-2098.3h21.4
				c1.5,3.1,4,5.5,7,7l0,0v21.4C-918.4-2072.5-929.7-2083.8-932.4-2098.3L-932.4-2098.3z"/>
		</g>
	</mask>
	<path id="Fill-89_1_" class="st18" d="M-933.3-2099.9c-0.2,0-0.4,0.1-0.6,0.3l0,0c-0.1,0.2-0.2,0.4-0.2,0.6l0,0
		c2.5,15.9,14.9,28.3,30.8,30.8l0,0c0,0,0.1,0,0.1,0l0,0c0.2,0,0.4-0.1,0.5-0.2l0,0c0.2-0.1,0.3-0.4,0.3-0.6l0,0v-22.8
		c0-0.3-0.2-0.6-0.5-0.7l0,0c-3.1-1.4-5.5-3.8-6.9-6.9l0,0c-0.1-0.3-0.4-0.5-0.7-0.5l0,0H-933.3z M-932.4-2098.3h21.4
		c1.5,3.1,4,5.5,7,7l0,0v21.4C-918.4-2072.5-929.7-2083.8-932.4-2098.3L-932.4-2098.3z"/>
	<defs>
		<filter id="Adobe_OpacityMaskFilter_7_" filterUnits="userSpaceOnUse" x="-891.9" y="-2099.6" width="31.2" height="31.2">
			<feColorMatrix  type="matrix" values="1 0 0 0 0  0 1 0 0 0  0 0 1 0 0  0 0 0 1 0"/>
		</filter>
	</defs>
	<mask maskUnits="userSpaceOnUse" x="-891.9" y="-2099.6" width="31.2" height="31.2" id="mask-11_1_">
		<g class="st19">
			<path id="path-10_1_" class="st1" d="M-933.3-2099.9c-0.2,0-0.4,0.1-0.6,0.3l0,0c-0.1,0.2-0.2,0.4-0.2,0.6l0,0
				c2.5,15.9,14.9,28.3,30.8,30.8l0,0c0,0,0.1,0,0.1,0l0,0c0.2,0,0.4-0.1,0.5-0.2l0,0c0.2-0.1,0.3-0.4,0.3-0.6l0,0v-22.8
				c0-0.3-0.2-0.6-0.5-0.7l0,0c-3.1-1.4-5.5-3.8-6.9-6.9l0,0c-0.1-0.3-0.4-0.5-0.7-0.5l0,0H-933.3z M-932.4-2098.3h21.4
				c1.5,3.1,4,5.5,7,7l0,0v21.4C-918.4-2072.5-929.7-2083.8-932.4-2098.3L-932.4-2098.3z"/>
		</g>
	</mask>
	<linearGradient id="Fill-92_3_" gradientUnits="userSpaceOnUse" x1="-891.8681" y1="-2083.9636" x2="-860.63" y2="-2083.9636">
		<stop  offset="0" style="stop-color:#7C72FF"/>
		<stop  offset="1" style="stop-color:#6633CC"/>
	</linearGradient>
	<path id="Fill-92_1_" class="st20" d="M-891.4-2068.9c15.4-2.5,27.7-14.7,30.2-30.2h-22.8c-1.4,3.3-4.1,5.9-7.3,7.3V-2068.9z"/>
	<g id="Clip-95_1_">
	</g>
	<defs>
		<filter id="Adobe_OpacityMaskFilter_8_" filterUnits="userSpaceOnUse" x="-892.1" y="-2099.9" width="31.7" height="31.7">
			<feColorMatrix  type="matrix" values="1 0 0 0 0  0 1 0 0 0  0 0 1 0 0  0 0 0 1 0"/>
		</filter>
	</defs>
	<mask maskUnits="userSpaceOnUse" x="-892.1" y="-2099.9" width="31.7" height="31.7" id="mask-14_1_">
		<g class="st21">
			<path id="path-13_1_" class="st1" d="M-884.1-2099.9c-0.3,0-0.6,0.2-0.7,0.5l0,0c-1.4,3.1-3.8,5.5-6.9,6.9l0,0
				c-0.3,0.1-0.5,0.4-0.5,0.7l0,0v22.8c0,0.2,0.1,0.4,0.3,0.6l0,0c0.1,0.1,0.3,0.2,0.5,0.2l0,0c0,0,0.1,0,0.1,0l0,0
				c15.9-2.5,28.3-14.9,30.8-30.8l0,0c0-0.2,0-0.5-0.2-0.6l0,0c-0.1-0.2-0.4-0.3-0.6-0.3l0,0H-884.1z M-890.6-2091.3
				c3.1-1.5,5.5-4,7-7l0,0h21.4c-2.7,14.5-14,25.8-28.5,28.5l0,0V-2091.3z"/>
		</g>
	</mask>
	<path id="Fill-94_1_" class="st22" d="M-884.1-2099.9c-0.3,0-0.6,0.2-0.7,0.5l0,0c-1.4,3.1-3.8,5.5-6.9,6.9l0,0
		c-0.3,0.1-0.5,0.4-0.5,0.7l0,0v22.8c0,0.2,0.1,0.4,0.3,0.6l0,0c0.1,0.1,0.3,0.2,0.5,0.2l0,0c0,0,0.1,0,0.1,0l0,0
		c15.9-2.5,28.3-14.9,30.8-30.8l0,0c0-0.2,0-0.5-0.2-0.6l0,0c-0.1-0.2-0.4-0.3-0.6-0.3l0,0H-884.1z M-890.6-2091.3
		c3.1-1.5,5.5-4,7-7l0,0h21.4c-2.7,14.5-14,25.8-28.5,28.5l0,0V-2091.3z"/>
</g>
<circle class="st23" cx="134" cy="58.5" r="7.5"/>
<g>
	<g>
		<path id="path-13_4_" class="st1" d="M55.3,75.1c-0.2,0-0.4,0.1-0.4,0.3l0,0c-0.9,1.9-2.4,3.5-4.3,4.3l0,0
			c-0.2,0.1-0.3,0.3-0.3,0.4l0,0v14.3c0,0.1,0.1,0.3,0.2,0.4l0,0c0.1,0.1,0.2,0.1,0.3,0.1l0,0c0,0,0.1,0,0.1,0l0,0
			c10-1.6,17.7-9.4,19.3-19.3l0,0c0-0.1,0-0.3-0.1-0.4l0,0c-0.1-0.1-0.2-0.2-0.4-0.2l0,0H55.3z M51.2,80.5c1.9-0.9,3.5-2.5,4.4-4.4
			l0,0h13.4c-1.7,9.1-8.8,16.2-17.8,17.8l0,0V80.5z"/>
	</g>
	<g>
		<path id="path-10_6_" class="st1" d="M24.5,75.1c-0.1,0-0.3,0.1-0.4,0.2l0,0C24,75.4,24,75.6,24,75.7l0,0
			c1.6,10,9.4,17.7,19.3,19.3l0,0c0,0,0.1,0,0.1,0l0,0c0.1,0,0.2,0,0.3-0.1l0,0c0.1-0.1,0.2-0.2,0.2-0.4l0,0V80.2
			c0-0.2-0.1-0.4-0.3-0.4l0,0c-1.9-0.9-3.5-2.4-4.3-4.3l0,0c-0.1-0.2-0.3-0.3-0.4-0.3l0,0H24.5z M25.1,76.1h13.4
			c0.9,1.9,2.5,3.5,4.4,4.4l0,0v13.4C33.8,92.3,26.7,85.2,25.1,76.1L25.1,76.1z"/>
	</g>
	<g>
		<path id="path-7_6_" class="st1" d="M43.3,48.9c-10,1.6-17.7,9.4-19.3,19.3l0,0c0,0.1,0,0.3,0.1,0.4l0,0c0.1,0.1,0.2,0.2,0.4,0.2
			l0,0h14.3c0.2,0,0.4-0.1,0.4-0.3l0,0c0.9-1.9,2.4-3.5,4.3-4.3l0,0c0.2-0.1,0.3-0.3,0.3-0.4l0,0V49.3c0-0.1-0.1-0.3-0.2-0.4l0,0
			C43.6,48.9,43.5,48.9,43.3,48.9L43.3,48.9C43.4,48.9,43.3,48.9,43.3,48.9 M42.9,49.9v13.4c-1.9,0.9-3.5,2.5-4.4,4.4l0,0H25.1
			C26.7,58.7,33.8,51.6,42.9,49.9"/>
	</g>
	<g>
		<path id="path-4_6_" class="st1" d="M50.4,49c-0.1,0.1-0.2,0.2-0.2,0.4l0,0v14.3c0,0.2,0.1,0.4,0.3,0.4l0,0
			c1.9,0.9,3.5,2.4,4.3,4.3l0,0c0.1,0.2,0.3,0.3,0.4,0.3l0,0h14.3c0.1,0,0.3-0.1,0.4-0.2l0,0c0.1-0.1,0.1-0.3,0.1-0.4l0,0
			c-1.6-10-9.3-17.7-19.3-19.3l0,0c0,0,0,0-0.1,0l0,0C50.6,48.9,50.5,48.9,50.4,49 M51.2,63.3V49.9c9.1,1.7,16.2,8.8,17.8,17.8l0,0
			H55.6C54.7,65.8,53.2,64.3,51.2,63.3"/>
	</g>
	<g>
		<path id="path-1_6_" class="st1" d="M16.3,71.8c0,16.8,13.7,30.5,30.5,30.5l0,0c16.8,0,30.5-13.7,30.5-30.5l0,0
			c0-16.8-13.7-30.5-30.5-30.5l0,0C30,41.3,16.3,55,16.3,71.8 M18.1,71.8C18.1,56,31,43.1,46.8,43.1l0,0c15.8,0,28.7,12.9,28.7,28.7
			l0,0c0,15.8-12.9,28.7-28.7,28.7l0,0C31,100.4,18.1,87.6,18.1,71.8"/>
	</g>
	<g id="element_cinta1_2_" transform="translate(1031.000000, 2162.621000)">
		<linearGradient id="Fill-11_4_" gradientUnits="userSpaceOnUse" x1="-1014.2778" y1="-2090.8533" x2="-954.1213" y2="-2090.8533">
			<stop  offset="0" style="stop-color:#7C72FF"/>
			<stop  offset="1" style="stop-color:#6633CC"/>
		</linearGradient>
		<path id="Fill-11_2_" class="st24" d="M-984.2-2061.3c-16.3,0-29.6-13.2-29.6-29.6c0-16.3,13.2-29.6,29.6-29.6
			c16.3,0,29.6,13.2,29.6,29.6C-954.6-2074.5-967.9-2061.3-984.2-2061.3z"/>
		<g id="Clip-14_2_">
		</g>
		<defs>
			<filter id="Adobe_OpacityMaskFilter_9_" filterUnits="userSpaceOnUse" x="-1014.7" y="-2121.3" width="61" height="61">
				<feColorMatrix  type="matrix" values="1 0 0 0 0  0 1 0 0 0  0 0 1 0 0  0 0 0 1 0"/>
			</filter>
		</defs>
		<mask maskUnits="userSpaceOnUse" x="-1014.7" y="-2121.3" width="61" height="61" id="mask-2_4_">
			<g class="st25">
				<path id="path-1_4_" class="st1" d="M-1014.7-2090.9c0,16.8,13.7,30.5,30.5,30.5l0,0c16.8,0,30.5-13.7,30.5-30.5l0,0
					c0-16.8-13.7-30.5-30.5-30.5l0,0C-1001-2121.3-1014.7-2107.7-1014.7-2090.9 M-1012.9-2090.9c0-15.8,12.9-28.7,28.7-28.7l0,0
					c15.8,0,28.7,12.9,28.7,28.7l0,0c0,15.8-12.9,28.7-28.7,28.7l0,0C-1000-2062.2-1012.9-2075.1-1012.9-2090.9"/>
			</g>
		</mask>
		<path id="Fill-13_2_" class="st26" d="M-1014.7-2090.9c0,16.8,13.7,30.5,30.5,30.5l0,0c16.8,0,30.5-13.7,30.5-30.5l0,0
			c0-16.8-13.7-30.5-30.5-30.5l0,0C-1001-2121.3-1014.7-2107.7-1014.7-2090.9 M-1012.9-2090.9c0-15.8,12.9-28.7,28.7-28.7l0,0
			c15.8,0,28.7,12.9,28.7,28.7l0,0c0,15.8-12.9,28.7-28.7,28.7l0,0C-1000-2062.2-1012.9-2075.1-1012.9-2090.9"/>
		<defs>
			<filter id="Adobe_OpacityMaskFilter_10_" filterUnits="userSpaceOnUse" x="-980.7" y="-2113.8" width="20" height="19.9">
				<feColorMatrix  type="matrix" values="1 0 0 0 0  0 1 0 0 0  0 0 1 0 0  0 0 0 1 0"/>
			</filter>
		</defs>
		<mask maskUnits="userSpaceOnUse" x="-980.7" y="-2113.8" width="20" height="19.9" id="mask-2_3_">
			<g class="st27">
				<path id="path-1_3_" class="st1" d="M-1014.7-2090.9c0,16.8,13.7,30.5,30.5,30.5l0,0c16.8,0,30.5-13.7,30.5-30.5l0,0
					c0-16.8-13.7-30.5-30.5-30.5l0,0C-1001-2121.3-1014.7-2107.7-1014.7-2090.9 M-1012.9-2090.9c0-15.8,12.9-28.7,28.7-28.7l0,0
					c15.8,0,28.7,12.9,28.7,28.7l0,0c0,15.8-12.9,28.7-28.7,28.7l0,0C-1000-2062.2-1012.9-2075.1-1012.9-2090.9"/>
			</g>
		</mask>
		<linearGradient id="Fill-77_4_" gradientUnits="userSpaceOnUse" x1="-980.7455" y1="-2103.8289" x2="-960.7562" y2="-2103.8289">
			<stop  offset="0" style="stop-color:#7C72FF"/>
			<stop  offset="1" style="stop-color:#6633CC"/>
		</linearGradient>
		<path id="Fill-77_2_" class="st28" d="M-980.2-2113.3v14.3c2,0.9,3.7,2.5,4.6,4.6h14.3C-962.9-2104.1-970.6-2111.7-980.2-2113.3"
			/>
		<g id="Clip-80_2_">
		</g>
		<defs>
			<filter id="Adobe_OpacityMaskFilter_11_" filterUnits="userSpaceOnUse" x="-980.7" y="-2113.8" width="19.9" height="19.9">
				<feColorMatrix  type="matrix" values="1 0 0 0 0  0 1 0 0 0  0 0 1 0 0  0 0 0 1 0"/>
			</filter>
		</defs>
		<mask maskUnits="userSpaceOnUse" x="-980.7" y="-2113.8" width="19.9" height="19.9" id="mask-5_4_">
			<g class="st29">
				<path id="path-4_4_" class="st1" d="M-980.6-2113.7c-0.1,0.1-0.2,0.2-0.2,0.4l0,0v14.3c0,0.2,0.1,0.4,0.3,0.4l0,0
					c1.9,0.9,3.5,2.4,4.3,4.3l0,0c0.1,0.2,0.3,0.3,0.4,0.3l0,0h14.3c0.1,0,0.3-0.1,0.4-0.2l0,0c0.1-0.1,0.1-0.3,0.1-0.4l0,0
					c-1.6-10-9.3-17.7-19.3-19.3l0,0c0,0,0,0-0.1,0l0,0C-980.4-2113.8-980.5-2113.7-980.6-2113.7 M-979.8-2099.3v-13.4
					c9.1,1.7,16.2,8.8,17.8,17.8l0,0h-13.4C-976.3-2096.8-977.8-2098.3-979.8-2099.3"/>
			</g>
		</mask>
		<path id="Fill-79_2_" class="st30" d="M-980.6-2113.7c-0.1,0.1-0.2,0.2-0.2,0.4l0,0v14.3c0,0.2,0.1,0.4,0.3,0.4l0,0
			c1.9,0.9,3.5,2.4,4.3,4.3l0,0c0.1,0.2,0.3,0.3,0.4,0.3l0,0h14.3c0.1,0,0.3-0.1,0.4-0.2l0,0c0.1-0.1,0.1-0.3,0.1-0.4l0,0
			c-1.6-10-9.3-17.7-19.3-19.3l0,0c0,0,0,0-0.1,0l0,0C-980.4-2113.8-980.5-2113.7-980.6-2113.7 M-979.8-2099.3v-13.4
			c9.1,1.7,16.2,8.8,17.8,17.8l0,0h-13.4C-976.3-2096.8-977.8-2098.3-979.8-2099.3"/>
		<defs>
			<filter id="Adobe_OpacityMaskFilter_12_" filterUnits="userSpaceOnUse" x="-1007.1" y="-2113.9" width="20" height="20">
				<feColorMatrix  type="matrix" values="1 0 0 0 0  0 1 0 0 0  0 0 1 0 0  0 0 0 1 0"/>
			</filter>
		</defs>
		<mask maskUnits="userSpaceOnUse" x="-1007.1" y="-2113.9" width="20" height="20" id="mask-5_3_">
			<g class="st31">
				<path id="path-4_3_" class="st1" d="M-980.6-2113.7c-0.1,0.1-0.2,0.2-0.2,0.4l0,0v14.3c0,0.2,0.1,0.4,0.3,0.4l0,0
					c1.9,0.9,3.5,2.4,4.3,4.3l0,0c0.1,0.2,0.3,0.3,0.4,0.3l0,0h14.3c0.1,0,0.3-0.1,0.4-0.2l0,0c0.1-0.1,0.1-0.3,0.1-0.4l0,0
					c-1.6-10-9.3-17.7-19.3-19.3l0,0c0,0,0,0-0.1,0l0,0C-980.4-2113.8-980.5-2113.7-980.6-2113.7 M-979.8-2099.3v-13.4
					c9.1,1.7,16.2,8.8,17.8,17.8l0,0h-13.4C-976.3-2096.8-977.8-2098.3-979.8-2099.3"/>
			</g>
		</mask>
		<linearGradient id="Fill-82_4_" gradientUnits="userSpaceOnUse" x1="-1007.1115" y1="-2103.8752" x2="-987.1213" y2="-2103.8752">
			<stop  offset="0" style="stop-color:#7C72FF"/>
			<stop  offset="1" style="stop-color:#6633CC"/>
		</linearGradient>
		<path id="Fill-82_2_" class="st32" d="M-987.6-2113.3c-9.7,1.5-17.4,9.2-18.9,18.9h14.3c0.9-2,2.5-3.7,4.6-4.6V-2113.3z"/>
		<g id="Clip-85_2_">
		</g>
		<defs>
			<filter id="Adobe_OpacityMaskFilter_13_" filterUnits="userSpaceOnUse" x="-1007" y="-2113.8" width="19.9" height="19.9">
				<feColorMatrix  type="matrix" values="1 0 0 0 0  0 1 0 0 0  0 0 1 0 0  0 0 0 1 0"/>
			</filter>
		</defs>
		<mask maskUnits="userSpaceOnUse" x="-1007" y="-2113.8" width="19.9" height="19.9" id="mask-8_4_">
			<g class="st33">
				<path id="path-7_4_" class="st1" d="M-987.7-2113.8c-10,1.6-17.7,9.4-19.3,19.3l0,0c0,0.1,0,0.3,0.1,0.4l0,0
					c0.1,0.1,0.2,0.2,0.4,0.2l0,0h14.3c0.2,0,0.4-0.1,0.4-0.3l0,0c0.9-1.9,2.4-3.5,4.3-4.3l0,0c0.2-0.1,0.3-0.3,0.3-0.4l0,0v-14.3
					c0-0.1-0.1-0.3-0.2-0.4l0,0C-987.4-2113.7-987.5-2113.8-987.7-2113.8L-987.7-2113.8C-987.6-2113.8-987.7-2113.8-987.7-2113.8
					 M-988.1-2112.7v13.4c-1.9,0.9-3.5,2.5-4.4,4.4l0,0h-13.4C-1004.3-2103.9-997.2-2111-988.1-2112.7"/>
			</g>
		</mask>
		<path id="Fill-84_2_" class="st34" d="M-987.7-2113.8c-10,1.6-17.7,9.4-19.3,19.3l0,0c0,0.1,0,0.3,0.1,0.4l0,0
			c0.1,0.1,0.2,0.2,0.4,0.2l0,0h14.3c0.2,0,0.4-0.1,0.4-0.3l0,0c0.9-1.9,2.4-3.5,4.3-4.3l0,0c0.2-0.1,0.3-0.3,0.3-0.4l0,0v-14.3
			c0-0.1-0.1-0.3-0.2-0.4l0,0C-987.4-2113.7-987.5-2113.8-987.7-2113.8L-987.7-2113.8C-987.6-2113.8-987.7-2113.8-987.7-2113.8
			 M-988.1-2112.7v13.4c-1.9,0.9-3.5,2.5-4.4,4.4l0,0h-13.4C-1004.3-2103.9-997.2-2111-988.1-2112.7"/>
		<defs>
			<filter id="Adobe_OpacityMaskFilter_14_" filterUnits="userSpaceOnUse" x="-1007.1" y="-2087.5" width="20" height="20">
				<feColorMatrix  type="matrix" values="1 0 0 0 0  0 1 0 0 0  0 0 1 0 0  0 0 0 1 0"/>
			</filter>
		</defs>
		<mask maskUnits="userSpaceOnUse" x="-1007.1" y="-2087.5" width="20" height="20" id="mask-8_3_">
			<g class="st35">
				<path id="path-7_3_" class="st1" d="M-987.7-2113.8c-10,1.6-17.7,9.4-19.3,19.3l0,0c0,0.1,0,0.3,0.1,0.4l0,0
					c0.1,0.1,0.2,0.2,0.4,0.2l0,0h14.3c0.2,0,0.4-0.1,0.4-0.3l0,0c0.9-1.9,2.4-3.5,4.3-4.3l0,0c0.2-0.1,0.3-0.3,0.3-0.4l0,0v-14.3
					c0-0.1-0.1-0.3-0.2-0.4l0,0C-987.4-2113.7-987.5-2113.8-987.7-2113.8L-987.7-2113.8C-987.6-2113.8-987.7-2113.8-987.7-2113.8
					 M-988.1-2112.7v13.4c-1.9,0.9-3.5,2.5-4.4,4.4l0,0h-13.4C-1004.3-2103.9-997.2-2111-988.1-2112.7"/>
			</g>
		</mask>
		<linearGradient id="Fill-87_4_" gradientUnits="userSpaceOnUse" x1="-1007.1108" y1="-2077.5103" x2="-987.1215" y2="-2077.5103">
			<stop  offset="0" style="stop-color:#7C72FF"/>
			<stop  offset="1" style="stop-color:#6633CC"/>
		</linearGradient>
		<path id="Fill-87_2_" class="st36" d="M-992.2-2087h-14.3c1.5,9.7,9.2,17.4,18.9,18.9v-14.3C-989.7-2083.3-991.3-2085-992.2-2087"
			/>
		<g id="Clip-90_2_">
		</g>
		<defs>
			<filter id="Adobe_OpacityMaskFilter_15_" filterUnits="userSpaceOnUse" x="-1007" y="-2087.5" width="19.9" height="19.9">
				<feColorMatrix  type="matrix" values="1 0 0 0 0  0 1 0 0 0  0 0 1 0 0  0 0 0 1 0"/>
			</filter>
		</defs>
		<mask maskUnits="userSpaceOnUse" x="-1007" y="-2087.5" width="19.9" height="19.9" id="mask-11_4_">
			<g class="st37">
				<path id="path-10_4_" class="st1" d="M-1006.5-2087.5c-0.1,0-0.3,0.1-0.4,0.2l0,0c-0.1,0.1-0.1,0.3-0.1,0.4l0,0
					c1.6,10,9.4,17.7,19.3,19.3l0,0c0,0,0.1,0,0.1,0l0,0c0.1,0,0.2,0,0.3-0.1l0,0c0.1-0.1,0.2-0.2,0.2-0.4l0,0v-14.3
					c0-0.2-0.1-0.4-0.3-0.4l0,0c-1.9-0.9-3.5-2.4-4.3-4.3l0,0c-0.1-0.2-0.3-0.3-0.4-0.3l0,0H-1006.5z M-1005.9-2086.5h13.4
					c0.9,1.9,2.5,3.5,4.4,4.4l0,0v13.4C-997.2-2070.4-1004.3-2077.4-1005.9-2086.5L-1005.9-2086.5z"/>
			</g>
		</mask>
		<path id="Fill-89_2_" class="st38" d="M-1006.5-2087.5c-0.1,0-0.3,0.1-0.4,0.2l0,0c-0.1,0.1-0.1,0.3-0.1,0.4l0,0
			c1.6,10,9.4,17.7,19.3,19.3l0,0c0,0,0.1,0,0.1,0l0,0c0.1,0,0.2,0,0.3-0.1l0,0c0.1-0.1,0.2-0.2,0.2-0.4l0,0v-14.3
			c0-0.2-0.1-0.4-0.3-0.4l0,0c-1.9-0.9-3.5-2.4-4.3-4.3l0,0c-0.1-0.2-0.3-0.3-0.4-0.3l0,0H-1006.5z M-1005.9-2086.5h13.4
			c0.9,1.9,2.5,3.5,4.4,4.4l0,0v13.4C-997.2-2070.4-1004.3-2077.4-1005.9-2086.5L-1005.9-2086.5z"/>
		<defs>
			<filter id="Adobe_OpacityMaskFilter_16_" filterUnits="userSpaceOnUse" x="-980.7" y="-2087.5" width="20" height="20">
				<feColorMatrix  type="matrix" values="1 0 0 0 0  0 1 0 0 0  0 0 1 0 0  0 0 0 1 0"/>
			</filter>
		</defs>
		<mask maskUnits="userSpaceOnUse" x="-980.7" y="-2087.5" width="20" height="20" id="mask-11_3_">
			<g class="st39">
				<path id="path-10_3_" class="st1" d="M-1006.5-2087.5c-0.1,0-0.3,0.1-0.4,0.2l0,0c-0.1,0.1-0.1,0.3-0.1,0.4l0,0
					c1.6,10,9.4,17.7,19.3,19.3l0,0c0,0,0.1,0,0.1,0l0,0c0.1,0,0.2,0,0.3-0.1l0,0c0.1-0.1,0.2-0.2,0.2-0.4l0,0v-14.3
					c0-0.2-0.1-0.4-0.3-0.4l0,0c-1.9-0.9-3.5-2.4-4.3-4.3l0,0c-0.1-0.2-0.3-0.3-0.4-0.3l0,0H-1006.5z M-1005.9-2086.5h13.4
					c0.9,1.9,2.5,3.5,4.4,4.4l0,0v13.4C-997.2-2070.4-1004.3-2077.4-1005.9-2086.5L-1005.9-2086.5z"/>
			</g>
		</mask>
		<linearGradient id="Fill-92_4_" gradientUnits="userSpaceOnUse" x1="-980.7455" y1="-2077.51" x2="-960.7562" y2="-2077.51">
			<stop  offset="0" style="stop-color:#7C72FF"/>
			<stop  offset="1" style="stop-color:#6633CC"/>
		</linearGradient>
		<path id="Fill-92_2_" class="st40" d="M-980.2-2068.1c9.7-1.5,17.4-9.2,18.9-18.9h-14.3c-0.9,2-2.5,3.7-4.6,4.6V-2068.1z"/>
		<g id="Clip-95_2_">
		</g>
		<defs>
			<filter id="Adobe_OpacityMaskFilter_17_" filterUnits="userSpaceOnUse" x="-980.7" y="-2087.5" width="19.9" height="19.9">
				<feColorMatrix  type="matrix" values="1 0 0 0 0  0 1 0 0 0  0 0 1 0 0  0 0 0 1 0"/>
			</filter>
		</defs>
		<mask maskUnits="userSpaceOnUse" x="-980.7" y="-2087.5" width="19.9" height="19.9" id="mask-14_2_">
			<g class="st41">
				<path id="path-13_2_" class="st1" d="M-975.7-2087.5c-0.2,0-0.4,0.1-0.4,0.3l0,0c-0.9,1.9-2.4,3.5-4.3,4.3l0,0
					c-0.2,0.1-0.3,0.3-0.3,0.4l0,0v14.3c0,0.1,0.1,0.3,0.2,0.4l0,0c0.1,0.1,0.2,0.1,0.3,0.1l0,0c0,0,0.1,0,0.1,0l0,0
					c10-1.6,17.7-9.4,19.3-19.3l0,0c0-0.1,0-0.3-0.1-0.4l0,0c-0.1-0.1-0.2-0.2-0.4-0.2l0,0H-975.7z M-979.8-2082.1
					c1.9-0.9,3.5-2.5,4.4-4.4l0,0h13.4c-1.7,9.1-8.8,16.2-17.8,17.8l0,0V-2082.1z"/>
			</g>
		</mask>
		<path id="Fill-94_2_" class="st42" d="M-975.7-2087.5c-0.2,0-0.4,0.1-0.4,0.3l0,0c-0.9,1.9-2.4,3.5-4.3,4.3l0,0
			c-0.2,0.1-0.3,0.3-0.3,0.4l0,0v14.3c0,0.1,0.1,0.3,0.2,0.4l0,0c0.1,0.1,0.2,0.1,0.3,0.1l0,0c0,0,0.1,0,0.1,0l0,0
			c10-1.6,17.7-9.4,19.3-19.3l0,0c0-0.1,0-0.3-0.1-0.4l0,0c-0.1-0.1-0.2-0.2-0.4-0.2l0,0H-975.7z M-979.8-2082.1
			c1.9-0.9,3.5-2.5,4.4-4.4l0,0h13.4c-1.7,9.1-8.8,16.2-17.8,17.8l0,0V-2082.1z"/>
	</g>
	<circle class="st23" cx="46.8" cy="71.8" r="4.8"/>
</g>
</svg>
